<?xml version="1.0" encoding="UTF-8" standalone="no"?> <svg width="64" height="64" viewBox="0 0 64 64" fill="none" xmlns="http://www.w3.org/2000/svg">
<path d="M60 50.74H58.29V22C58.29 20.6739 57.7632 19.4022 56.8255 18.4645C55.8879 17.5268 54.6161 17 53.29 17H47.71V10.55C47.71 9.22392 47.1832 7.95215 46.2455 7.01447C45.3079 6.07679 44.0361 5.55 42.71 5.55H21.29C19.9639 5.55 18.6921 6.07679 17.7545 7.01447C16.8168 7.95215 16.29 9.22392 16.29 10.55V17H10.71C9.38392 17 8.11215 17.5268 7.17447 18.4645C6.23678 19.4022 5.71 20.6739 5.71 22V50.74H4C3.73478 50.74 3.48043 50.8454 3.29289 51.0329C3.10536 51.2204 3 51.4748 3 51.74C3.00265 53.5188 3.71044 55.224 4.96824 56.4818C6.22603 57.7396 7.93121 58.4474 9.71 58.45H54.29C56.0688 58.4474 57.774 57.7396 59.0318 56.4818C60.2896 55.224 60.9974 53.5188 61 51.74C61 51.4748 60.8946 51.2204 60.7071 51.0329C60.5196 50.8454 60.2652 50.74 60 50.74ZM18.29 10.55C18.29 9.75435 18.6061 8.99129 19.1687 8.42868C19.7313 7.86607 20.4944 7.55 21.29 7.55H42.71C43.5056 7.55 44.2687 7.86607 44.8313 8.42868C45.3939 8.99129 45.71 9.75435 45.71 10.55V25.45C45.71 26.2457 45.3939 27.0087 44.8313 27.5713C44.2687 28.1339 43.5056 28.45 42.71 28.45H32C31.7439 28.4483 31.4969 28.545 31.31 28.72L24.07 35.55V29.45C24.07 29.1848 23.9646 28.9304 23.7771 28.7429C23.5896 28.5554 23.3352 28.45 23.07 28.45H21.29C20.4944 28.45 19.7313 28.1339 19.1687 27.5713C18.6061 27.0087 18.29 26.2457 18.29 25.45V10.55ZM7.71 22C7.71 21.2044 8.02607 20.4413 8.58868 19.8787C9.15129 19.3161 9.91435 19 10.71 19H16.29V25.43C16.29 26.7561 16.8168 28.0279 17.7545 28.9655C18.6921 29.9032 19.9639 30.43 21.29 30.43H22.07V37.85C22.0702 38.0463 22.1281 38.2382 22.2366 38.4018C22.345 38.5654 22.4993 38.6935 22.68 38.77C22.804 38.8204 22.9362 38.8475 23.07 38.85C23.3261 38.8517 23.5731 38.755 23.76 38.58L32.4 30.43H42.71C44.0361 30.43 45.3079 29.9032 46.2455 28.9655C47.1832 28.0279 47.71 26.7561 47.71 25.43V19H53.29C54.0857 19 54.8487 19.3161 55.4113 19.8787C55.9739 20.4413 56.29 21.2044 56.29 22V50.74H7.71V22ZM54.29 56.45H9.71C8.63547 56.4476 7.59393 56.0786 6.75753 55.404C5.92112 54.7294 5.33993 53.7897 5.11 52.74H58.89C58.6601 53.7897 58.0789 54.7294 57.2425 55.404C56.4061 56.0786 55.3645 56.4476 54.29 56.45V56.45Z" fill="black"/>
<path d="M24 14.79H40C40.2652 14.79 40.5196 14.6846 40.7071 14.4971C40.8946 14.3096 41 14.0552 41 13.79C41 13.5248 40.8946 13.2704 40.7071 13.0829C40.5196 12.8954 40.2652 12.79 40 12.79H24C23.7348 12.79 23.4804 12.8954 23.2929 13.0829C23.1054 13.2704 23 13.5248 23 13.79C23 14.0552 23.1054 14.3096 23.2929 14.4971C23.4804 14.6846 23.7348 14.79 24 14.79Z" fill="black"/>
<path d="M24 19H40C40.2652 19 40.5196 18.8946 40.7071 18.7071C40.8946 18.5196 41 18.2652 41 18C41 17.7348 40.8946 17.4804 40.7071 17.2929C40.5196 17.1054 40.2652 17 40 17H24C23.7348 17 23.4804 17.1054 23.2929 17.2929C23.1054 17.4804 23 17.7348 23 18C23 18.2652 23.1054 18.5196 23.2929 18.7071C23.4804 18.8946 23.7348 19 24 19Z" fill="black"/>
<path d="M24 23.25H40C40.2652 23.25 40.5196 23.1446 40.7071 22.9571C40.8946 22.7696 41 22.5152 41 22.25C41 21.9848 40.8946 21.7304 40.7071 21.5429C40.5196 21.3554 40.2652 21.25 40 21.25H24C23.7348 21.25 23.4804 21.3554 23.2929 21.5429C23.1054 21.7304 23 21.9848 23 22.25C23 22.5152 23.1054 22.7696 23.2929 22.9571C23.4804 23.1446 23.7348 23.25 24 23.25Z" fill="black"/>
</svg>
