<?xml version="1.0" encoding="UTF-8" standalone="no"?> <svg width="64" height="64" viewBox="0 0 64 64" fill="none" xmlns="http://www.w3.org/2000/svg">
<path d="M59.68 39.71C58.8061 38.3382 57.6557 37.1637 56.3023 36.2615C54.949 35.3593 53.4224 34.7491 51.82 34.47L49.3 34C46.7359 33.5629 44.1001 33.878 41.7113 34.9073C39.3226 35.9367 37.2833 37.6361 35.84 39.8C35.766 39.915 35.6677 40.0122 35.5519 40.0848C35.436 40.1574 35.3057 40.2035 35.17 40.22C35.0345 40.2315 34.8982 40.2153 34.7692 40.1723C34.6403 40.1293 34.5214 40.0605 34.42 39.97L24.28 30.51C24.0902 30.3311 23.9439 30.1111 23.8522 29.867C23.7605 29.6228 23.7259 29.3609 23.751 29.1013C23.7761 28.8417 23.8602 28.5913 23.997 28.3692C24.1337 28.1471 24.3195 27.9593 24.54 27.82C26.0845 26.8564 27.2896 25.4345 27.987 23.7529C28.6844 22.0713 28.8392 20.2139 28.43 18.44L27.78 15.62C27.3132 13.5952 26.3605 11.7144 25.0041 10.1402C23.6478 8.566 21.9285 7.34567 19.995 6.58465C18.0614 5.82362 15.9716 5.54478 13.9062 5.77221C11.8407 5.99965 9.86165 6.72651 8.13999 7.89002L7.99999 8.00002C5.55514 9.59867 3.77736 12.0342 2.99999 14.85C0.469991 24.66 7.28999 38.26 19.61 47.92C28.15 54.62 38 58.3 46.12 58.3C49.3652 58.3707 52.5795 57.6572 55.49 56.22C56.8653 55.4729 58.0721 54.4508 59.0355 53.2173C59.9989 51.9838 60.6982 50.5653 61.09 49.05C61.5158 47.4806 61.6104 45.8397 61.3676 44.2317C61.1249 42.6237 60.5501 41.0838 59.68 39.71V39.71ZM54.56 54.45C46.31 58.77 32.44 55.45 20.84 46.34C9.23999 37.23 2.59999 24.42 4.99999 15.35C5.61945 13.0214 7.07101 11.0006 9.07999 9.67002L9.25999 9.54002C11.0302 8.33647 13.1194 7.68881 15.26 7.68002C16.6296 7.68542 17.9862 7.94656 19.26 8.45002C20.8969 9.08093 22.3523 10.1068 23.4969 11.4362C24.6414 12.7657 25.4395 14.3575 25.82 16.07L26.47 18.88C26.787 20.2489 26.6683 21.6827 26.1304 22.9809C25.5925 24.279 24.6623 25.3765 23.47 26.12C22.9847 26.4223 22.5758 26.8326 22.2753 27.3189C21.9748 27.8052 21.7907 28.3545 21.7374 28.9237C21.6842 29.4929 21.7632 30.0667 21.9684 30.6004C22.1735 31.134 22.4992 31.613 22.92 32L33.06 41.46C33.3718 41.7505 33.7431 41.9697 34.148 42.1025C34.553 42.2353 34.9819 42.2784 35.4052 42.229C35.8285 42.1795 36.236 42.0386 36.5994 41.8161C36.9628 41.5935 37.2735 41.2946 37.51 40.94C38.7381 39.0892 40.4788 37.6364 42.5194 36.7591C44.5599 35.8817 46.8119 35.618 49 36L51.52 36.44C52.8479 36.6723 54.1126 37.1791 55.2335 37.928C56.3543 38.6769 57.3066 39.6514 58.0294 40.7893C58.7522 41.9272 59.2297 43.2033 59.4312 44.5362C59.6328 45.8691 59.554 47.2293 59.2 48.53C58.8764 49.7833 58.2971 50.9562 57.4986 51.9749C56.7002 52.9937 55.6997 53.8363 54.56 54.45V54.45Z" fill="black"/>
<path d="M39.47 5C44.6588 5.02117 49.6276 7.09793 53.2882 10.7754C56.9488 14.4528 59.0027 19.4312 59 24.62C59 24.8852 59.1054 25.1396 59.2929 25.3271C59.4804 25.5146 59.7348 25.62 60 25.62C60.2652 25.62 60.5196 25.5146 60.7071 25.3271C60.8946 25.1396 61 24.8852 61 24.62C61.0027 18.9008 58.7381 13.4137 54.7024 9.36118C50.6668 5.30865 45.1892 3.02117 39.47 3C39.2048 3 38.9504 3.10536 38.7629 3.29289C38.5754 3.48043 38.47 3.73478 38.47 4C38.47 4.26522 38.5754 4.51957 38.7629 4.70711C38.9504 4.89464 39.2048 5 39.47 5Z" fill="black"/>
<path d="M39.47 10.77C43.1293 10.7885 46.6321 12.2565 49.2111 14.8525C51.7902 17.4484 53.2353 20.9607 53.23 24.62C53.23 24.8852 53.3354 25.1396 53.5229 25.3271C53.7104 25.5147 53.9648 25.62 54.23 25.62C54.4952 25.62 54.7496 25.5147 54.9371 25.3271C55.1246 25.1396 55.23 24.8852 55.23 24.62C55.2353 20.4303 53.5795 16.4093 50.6253 13.4383C47.6712 10.4673 43.6597 8.78854 39.47 8.77002V8.77002C39.2048 8.77002 38.9504 8.87538 38.7629 9.06291C38.5754 9.25045 38.47 9.5048 38.47 9.77002C38.47 10.0352 38.5754 10.2896 38.7629 10.4771C38.9504 10.6647 39.2048 10.77 39.47 10.77Z" fill="black"/>
<path d="M39.46 16.53C41.5916 16.5485 43.6293 17.4096 45.1282 18.9253C46.6271 20.4411 47.4654 22.4883 47.46 24.62C47.46 24.8852 47.5653 25.1396 47.7529 25.3271C47.9404 25.5146 48.1948 25.62 48.46 25.62C48.7252 25.62 48.9796 25.5146 49.1671 25.3271C49.3546 25.1396 49.46 24.8852 49.46 24.62C49.4391 21.9743 48.3788 19.4429 46.5079 17.572C44.6371 15.7012 42.1057 14.6409 39.46 14.62V14.62C39.1948 14.62 38.9404 14.7254 38.7529 14.9129C38.5653 15.1004 38.46 15.3548 38.46 15.62C38.46 15.8852 38.5653 16.1396 38.7529 16.3271C38.9404 16.5146 39.1948 16.62 39.46 16.62V16.53Z" fill="black"/>
<path d="M39.43 28.8601C40.2765 28.8601 41.104 28.609 41.8078 28.1387C42.5117 27.6684 43.0603 27 43.3842 26.2179C43.7081 25.4359 43.7929 24.5753 43.6278 23.7451C43.4626 22.9148 43.055 22.1522 42.4564 21.5536C41.8578 20.9551 41.0952 20.5474 40.265 20.3823C39.4347 20.2171 38.5742 20.3019 37.7921 20.6258C37.01 20.9498 36.3416 21.4984 35.8713 22.2022C35.401 22.9061 35.15 23.7335 35.15 24.5801C35.15 25.1421 35.2607 25.6987 35.4758 26.2179C35.6909 26.7372 36.0061 27.209 36.4036 27.6065C36.801 28.0039 37.2728 28.3192 37.7921 28.5343C38.3114 28.7493 38.8679 28.8601 39.43 28.8601ZM39.43 22.3101C39.8814 22.3101 40.3226 22.444 40.6977 22.695C41.0729 22.946 41.3651 23.3027 41.5374 23.7199C41.7096 24.1371 41.7542 24.596 41.6654 25.0385C41.5766 25.4811 41.3585 25.8873 41.0386 26.2058C40.7188 26.5243 40.3116 26.7406 39.8686 26.8275C39.4257 26.9143 38.967 26.8677 38.5505 26.6936C38.1341 26.5195 37.7787 26.2257 37.5294 25.8495C37.28 25.4732 37.148 25.0314 37.15 24.5801C37.15 24.2811 37.209 23.9851 37.3237 23.709C37.4384 23.433 37.6065 23.1823 37.8184 22.9714C38.0302 22.7605 38.2817 22.5935 38.5582 22.48C38.8348 22.3665 39.1311 22.3087 39.43 22.3101V22.3101Z" fill="black"/>
</svg>
