<?xml version="1.0" encoding="UTF-8" standalone="no"?> <svg width="64" height="64" viewBox="0 0 64 64" fill="none" xmlns="http://www.w3.org/2000/svg">
<path d="M50.0899 25.51C50.089 24.1352 49.6031 22.8047 48.7178 21.7529C47.8324 20.7011 46.6044 19.9954 45.2499 19.76V7.20999C45.2488 7.0445 45.2067 6.88186 45.1273 6.73666C45.0479 6.59146 44.9337 6.46824 44.7949 6.37805C44.6561 6.28786 44.4972 6.23351 44.3322 6.21989C44.1673 6.20626 44.0016 6.23379 43.8499 6.29999L28.7499 12.88H15.3699C12.2043 12.8836 9.16051 14.1007 6.86518 16.2807C4.56985 18.4607 3.19765 21.4378 3.03107 24.599C2.86449 27.7603 3.9162 30.8651 5.96969 33.2743C8.02319 35.6835 10.9222 37.2137 14.0699 37.55L19.4599 57.05C19.5185 57.2681 19.6492 57.46 19.8308 57.5944C20.0124 57.7288 20.2341 57.7977 20.4599 57.79H28.8299C28.9834 57.7884 29.1346 57.7516 29.2716 57.6822C29.4086 57.6128 29.5278 57.5128 29.6199 57.39C29.7132 57.2678 29.7771 57.1257 29.8066 56.9748C29.836 56.824 29.8303 56.6683 29.7899 56.52L24.5599 37.62H28.7799L43.8699 44.71C44.0217 44.7802 44.1887 44.8113 44.3556 44.8003C44.5225 44.7893 44.684 44.7367 44.8253 44.6471C44.9665 44.5576 45.0831 44.434 45.1643 44.2878C45.2454 44.1415 45.2886 43.9772 45.2899 43.81V31.26C46.6371 31.0162 47.8558 30.3068 48.7331 29.2558C49.6105 28.2049 50.0907 26.879 50.0899 25.51V25.51ZM4.99989 25.25C5.00254 22.5005 6.09594 19.8644 8.04012 17.9202C9.98429 15.976 12.6204 14.8826 15.3699 14.88H27.9999V35.62H15.3699C12.6204 35.6173 9.98429 34.5239 8.04012 32.5798C6.09594 30.6356 5.00254 27.9995 4.99989 25.25V25.25ZM27.4699 55.79H21.1799L16.1799 37.62H22.4699L27.4699 55.79ZM43.2499 42.23L29.9999 36V14.53L43.2499 8.73999V42.23ZM45.2499 29.23V21.82C46.0623 22.0375 46.7802 22.5171 47.2922 23.1843C47.8043 23.8515 48.0818 24.669 48.0818 25.51C48.0818 26.351 47.8043 27.1685 47.2922 27.8357C46.7802 28.5029 46.0623 28.9824 45.2499 29.2V29.23Z" fill="black"/>
<path d="M59.9999 24.51H52.9399C52.6747 24.51 52.4204 24.6154 52.2328 24.8029C52.0453 24.9904 51.9399 25.2448 51.9399 25.51C51.9399 25.7752 52.0453 26.0296 52.2328 26.2171C52.4204 26.4047 52.6747 26.51 52.9399 26.51H59.9999C60.2652 26.51 60.5195 26.4047 60.7071 26.2171C60.8946 26.0296 60.9999 25.7752 60.9999 25.51C60.9999 25.2448 60.8946 24.9904 60.7071 24.8029C60.5195 24.6154 60.2652 24.51 59.9999 24.51Z" fill="black"/>
<path d="M50.9199 30.87C50.7325 30.6838 50.4791 30.5792 50.2149 30.5792C49.9507 30.5792 49.6973 30.6838 49.5099 30.87C49.4162 30.963 49.3418 31.0736 49.291 31.1954C49.2402 31.3173 49.2141 31.448 49.2141 31.58C49.2141 31.712 49.2402 31.8427 49.291 31.9646C49.3418 32.0865 49.4162 32.1971 49.5099 32.29L54.5099 37.29C54.6962 37.4748 54.9476 37.5789 55.2099 37.58C55.3415 37.5808 55.472 37.5556 55.5938 37.5058C55.7157 37.456 55.8265 37.3827 55.9199 37.29C56.0136 37.1971 56.088 37.0865 56.1388 36.9646C56.1896 36.8427 56.2157 36.712 56.2157 36.58C56.2157 36.448 56.1896 36.3173 56.1388 36.1954C56.088 36.0736 56.0136 35.963 55.9199 35.87L50.9199 30.87Z" fill="black"/>
<path d="M50.54 20.31C50.8023 20.3089 51.0537 20.2047 51.24 20.02L56.24 15.02C56.3337 14.927 56.4081 14.8164 56.4589 14.6946C56.5097 14.5727 56.5358 14.442 56.5358 14.31C56.5358 14.178 56.5097 14.0473 56.4589 13.9254C56.4081 13.8036 56.3337 13.693 56.24 13.6C56.0526 13.4137 55.7992 13.3092 55.535 13.3092C55.2708 13.3092 55.0174 13.4137 54.83 13.6L49.83 18.6C49.689 18.7399 49.5928 18.9186 49.5537 19.1133C49.5146 19.3081 49.5345 19.51 49.6106 19.6935C49.6868 19.8769 49.8159 20.0335 49.9814 20.1433C50.1469 20.2531 50.3414 20.3112 50.54 20.31V20.31Z" fill="black"/>
</svg>
