<?xml version="1.0" encoding="utf-8"?>
<!-- Generator: Adobe Illustrator 23.0.0, SVG Export Plug-In . SVG Version: 6.00 Build 0)  -->
<svg version="1.1" id="Layer_1" xmlns="http://www.w3.org/2000/svg" xmlns:xlink="http://www.w3.org/1999/xlink" x="0px" y="0px"
	 viewBox="0 0 512 512" enable-background="new 0 0 512 512" xml:space="preserve">
<g>
	
		<polygon fill="none" stroke="#000000" stroke-width="15" stroke-linecap="round" stroke-linejoin="round" stroke-miterlimit="10" points="
		72,216 72,249.83 18,216 	"/>
	
		<polygon fill="none" stroke="#000000" stroke-width="15" stroke-linecap="round" stroke-linejoin="round" stroke-miterlimit="10" points="
		495,216 441,249.89 441,216 	"/>
	<path fill="none" stroke="#000000" stroke-width="15" stroke-linecap="round" stroke-linejoin="round" stroke-miterlimit="10" d="
		M356.91,187.09C356.91,242.82,311.73,288,256,288s-100.91-45.18-100.91-100.91c0-55.72,45.18-100.9,100.91-100.9
		S356.91,131.37,356.91,187.09z"/>
	
		<polygon fill="none" stroke="#000000" stroke-width="15" stroke-linecap="round" stroke-linejoin="round" stroke-miterlimit="10" points="
		72,162 72,216 18,216 	"/>
	
		<polygon fill="none" stroke="#000000" stroke-width="15" stroke-linecap="round" stroke-linejoin="round" stroke-miterlimit="10" points="
		495,216 441,216 441,162 	"/>
	<path fill="none" stroke="#000000" stroke-width="15" stroke-linecap="round" stroke-linejoin="round" stroke-miterlimit="10" d="
		M495,495H18l142.8-108l11.9-9l43.37-32.8c23.64-17.82,56.22-17.86,79.89-0.1l43.69,32.9l11.95,9L495,495z"/>
	
		<polygon fill="none" stroke="#000000" stroke-width="15" stroke-linecap="round" stroke-linejoin="round" stroke-miterlimit="10" points="
		495,216 495,495 351.6,387 339.65,378 295.96,345.1 292.92,342.81 431.5,255.85 441,249.89 	"/>
	
		<polygon fill="none" stroke="#000000" stroke-width="15" stroke-linecap="round" stroke-linejoin="round" stroke-miterlimit="10" points="
		219.76,342.41 216.07,345.2 172.7,378 160.8,387 18,495 18,216 72,249.83 80.5,255.16 	"/>
	<path fill="none" stroke="#000000" stroke-width="15" stroke-linecap="round" stroke-linejoin="round" stroke-miterlimit="10" d="
		M356.91,187.09C356.91,242.82,311.73,288,256,288s-100.91-45.18-100.91-100.91c0-55.72,45.18-100.9,100.91-100.9
		S356.91,131.37,356.91,187.09z"/>
	
		<polyline fill="none" stroke="#000000" stroke-width="15" stroke-linecap="round" stroke-linejoin="round" stroke-miterlimit="10" points="
		201.941,183.415 236.818,218.292 310.059,145.051 	"/>
	<path fill="none" stroke="#000000" stroke-width="15" stroke-linecap="round" stroke-linejoin="round" stroke-miterlimit="10" d="
		M144,18v72H72v159.83l8.5,5.33l139.26,87.25l-3.69,2.79c23.64-17.82,56.22-17.86,79.89-0.1l-3.04-2.29l138.58-86.96l9.5-5.96V18
		H144z M256,288c-55.73,0-100.91-45.18-100.91-100.91c0-55.72,45.18-100.9,100.91-100.9s100.91,45.18,100.91,100.9
		C356.91,242.82,311.73,288,256,288z"/>
	
		<polygon fill="none" stroke="#000000" stroke-width="15" stroke-linecap="round" stroke-linejoin="round" stroke-miterlimit="10" points="
		144,18 144,90 72,90 	"/>
	<path fill="none" stroke="#000000" stroke-width="15" stroke-linecap="round" stroke-linejoin="round" stroke-miterlimit="10" d="
		M356.91,187.09C356.91,242.82,311.73,288,256,288s-100.91-45.18-100.91-100.91c0-55.72,45.18-100.9,100.91-100.9
		S356.91,131.37,356.91,187.09z"/>
	
		<polygon fill="none" stroke="#000000" stroke-width="15" stroke-linecap="round" stroke-linejoin="round" stroke-miterlimit="10" points="
		144,18 144,90 72,90 	"/>
</g>
</svg>
