<?xml version="1.0" encoding="UTF-8" standalone="no"?> <svg xmlns="http://www.w3.org/2000/svg" viewBox="0 0 64 64"><g id="Data-2" data-name="Data"><path d="M60,47.33H57.3V13a1,1,0,0,0-1-1H36.46a11.7,11.7,0,0,0-9.8-5.33,1,1,0,0,0-1,1V12h-2v-.35a1,1,0,0,0-1-1A11.63,11.63,0,0,0,17.23,12H7.7a1,1,0,0,0-1,1V47.33H4a1,1,0,0,0-1,1v4.52a4.44,4.44,0,0,0,4.45,4.44h49.1A4.44,4.44,0,0,0,61,52.85V48.33A1,1,0,0,0,60,47.33ZM27.66,8.76a9.69,9.69,0,0,1,8.63,8.62H27.66Zm-5,14.61H32.3A9.68,9.68,0,1,1,21.68,12.74v9.63A1,1,0,0,0,22.68,23.37ZM14.5,14a11.68,11.68,0,1,0,19.86,8.33,1,1,0,0,0-1-1H23.68V14h2v4.34a1,1,0,0,0,1,1H37.34a1,1,0,0,0,1-1A11.65,11.65,0,0,0,37.5,14H55.3V43.65H8.7V14ZM8.7,45.65H55.3v1.68H42.88a1,1,0,0,0-1,1V50a.6.6,0,0,1-.59.59H22.71a.6.6,0,0,1-.59-.59V48.33a1,1,0,0,0-1-1H8.7ZM59,52.85a2.45,2.45,0,0,1-2.45,2.44H7.45A2.45,2.45,0,0,1,5,52.85V49.33H20.12V50a2.6,2.6,0,0,0,2.59,2.59H41.29A2.6,2.6,0,0,0,43.88,50v-.71H59Z"/><path d="M42.46,29.4h7.08a3.38,3.38,0,1,0,0-6.75H42.46a3.38,3.38,0,1,0,0,6.75Zm0-4.75h7.08a1.38,1.38,0,1,1,0,2.75H42.46a1.38,1.38,0,1,1,0-2.75Z"/><path d="M35.08,38.93H49.54a3.38,3.38,0,1,0,0-6.76H35.08a3.38,3.38,0,0,0,0,6.76Zm0-4.76H49.54a1.38,1.38,0,1,1,0,2.76H35.08a1.38,1.38,0,0,1,0-2.76Z"/></g></svg>