<?xml version="1.0" encoding="UTF-8" standalone="no"?> <svg xmlns="http://www.w3.org/2000/svg" viewBox="0 0 64 64"><g id="Send_Mail" data-name="Send Mail"><path d="M5,45.2H25.68v8H22.22a3.9,3.9,0,1,0,0,7.79H42.1a3.9,3.9,0,1,0,0-7.79H38.32v-8H59a1,1,0,0,0,1-1V4a1,1,0,0,0-1-1H5A1,1,0,0,0,4,4V44.2A1,1,0,0,0,5,45.2ZM44,57.11A1.9,1.9,0,0,1,42.1,59H22.22a1.9,1.9,0,1,1,0-3.79H42.1A1.9,1.9,0,0,1,44,57.11Zm-7.68-3.9H27.68v-8h1.38v2.74a2.94,2.94,0,0,0,5.88,0V45.2h1.38Zm-5.26-8h1.88v2.74a.94.94,0,0,1-1.88,0Zm-25-2V38.66H58V43.2ZM58,5V36.66H6V5Z"/><path d="M8.53,35.2H55.47a1,1,0,0,0,1-1V7.41a1,1,0,0,0-1-1H8.53a1,1,0,0,0-1,1V34.2A1,1,0,0,0,8.53,35.2Zm1-26.79H54.47V33.2H9.53Z"/><path d="M35.42,40H28.59a1,1,0,1,0,0,2h6.83a1,1,0,0,0,0-2Z"/><path d="M46.13,15.12H29.6a1.07,1.07,0,0,0-1,1V26.89a1,1,0,0,0,1,1H46.13a1,1,0,0,0,1-1V16.12A1.08,1.08,0,0,0,46.13,15.12ZM30.6,18.3l3.67,3.15L30.6,24.6Zm7.27,3.61L32.3,17.12H43.43Zm-2.07.86L37.21,24a1,1,0,0,0,1.31,0l1.41-1.22,3.63,3.12H32.17Zm5.67-1.32,3.66-3.15v6.3Z"/><path d="M22,18.07h3a1,1,0,0,0,0-2H22a1,1,0,0,0,0,2Z"/><path d="M25.09,20.2H19.75a1,1,0,0,0,0,2h5.34a1,1,0,0,0,0-2Z"/><path d="M25.09,24.33H17.87a1,1,0,0,0,0,2h7.22a1,1,0,1,0,0-2Z"/></g></svg>