<?xml version="1.0" encoding="UTF-8" standalone="no"?> <svg width="64" height="64" viewBox="0 0 64 64" fill="none" xmlns="http://www.w3.org/2000/svg">
<path d="M57.9099 40.5701C57.9054 40.4447 57.8852 40.3204 57.8499 40.2001C57.2699 35.7101 39.9699 35.6901 39.3599 40.2001C39.2599 40.0701 39.3599 45.2001 39.3599 45.3201H35.7499C35.5488 44.811 35.2453 44.3487 34.8583 43.9617C34.4713 43.5747 34.009 43.2712 33.4999 43.0701V35.5101H41.4299C55.9799 35.1101 57.9299 14.8901 43.8299 11.6201C41.1199 -1.20994 22.8899 -1.20994 20.1699 11.6201C5.99995 14.8501 8.05995 35.1301 22.5699 35.5101H30.4999V43.0701C29.9909 43.2712 29.5286 43.5747 29.1416 43.9617C28.7546 44.3487 28.4511 44.811 28.2499 45.3201H24.6899C24.6899 45.2401 24.6899 40.0801 24.6399 40.2001C24.0499 35.7101 6.74995 35.6901 6.14995 40.2001C6.11466 40.3204 6.0945 40.4447 6.08995 40.5701V56.6601C6.07956 56.7865 6.07956 56.9136 6.08995 57.0401C6.66995 61.5301 23.9899 61.5501 24.5899 57.0401C24.6171 56.915 24.6338 56.7879 24.6399 56.6601V48.3201H28.1999C28.5039 49.0652 29.0229 49.7029 29.6908 50.1517C30.3587 50.6006 31.1452 50.8404 31.9499 50.8404C32.7547 50.8404 33.5412 50.6006 34.2091 50.1517C34.877 49.7029 35.396 49.0652 35.6999 48.3201H39.2599V56.6601C39.2496 56.7865 39.2496 56.9136 39.2599 57.0401C39.8399 61.5301 57.1599 61.5501 57.7599 57.0401C57.7703 56.9136 57.7703 56.7865 57.7599 56.6601L57.9099 40.5701ZM13.4999 23.4401C13.3399 16.8301 20.8499 12.2301 26.6699 15.3501C27.0224 15.523 27.4283 15.5518 27.8017 15.4305C28.1751 15.3091 28.4865 15.0471 28.6699 14.7001C29.7499 12.1501 24.9599 11.6001 23.2899 11.4001C25.8299 2.85006 38.1299 2.85006 40.6699 11.4001C38.9999 11.5901 34.1999 12.1501 35.2799 14.7001C35.4634 15.0471 35.7748 15.3091 36.1482 15.4305C36.5216 15.5518 36.9275 15.523 37.2799 15.3501C43.0599 12.2101 50.5899 16.8301 50.4599 23.4401C50.4573 25.8448 49.5009 28.1502 47.8005 29.8506C46.1001 31.551 43.7946 32.5074 41.3899 32.5101H22.5699C20.1652 32.5074 17.8598 31.551 16.1594 29.8506C14.459 28.1502 13.5026 25.8448 13.4999 23.4401V23.4401ZM54.9099 45.5901C54.2599 46.0101 52.0599 46.6501 48.6099 46.6501C45.1599 46.6501 42.9999 46.0001 42.3099 45.5901V43.4601C46.437 44.5669 50.7829 44.5669 54.9099 43.4601V45.5901ZM42.3099 51.0001V48.8201C46.437 49.9269 50.7829 49.9269 54.9099 48.8201V51.0001C54.2599 51.4201 52.0599 52.0601 48.6099 52.0601C45.1599 52.0601 42.9999 51.3801 42.3099 51.0001ZM48.6099 39.8901C50.4762 39.8424 52.3384 40.0853 54.1299 40.6101C52.3499 41.5101 44.8699 41.5101 43.0799 40.6101C44.873 40.0728 46.7384 39.8164 48.6099 39.8501V39.8901ZM21.6899 45.5901C21.0399 46.0101 18.8399 46.6501 15.3899 46.6501C11.9399 46.6501 9.73995 46.0001 9.08995 45.5901V43.4601C11.1419 44.0245 13.2618 44.3038 15.3899 44.2901C17.5181 44.3038 19.638 44.0245 21.6899 43.4601V45.5901ZM9.08995 51.0001V48.8201C11.1409 49.3896 13.2615 49.669 15.3899 49.6501C17.5184 49.669 19.639 49.3896 21.6899 48.8201V51.0001C20.9999 51.3801 18.8399 52.0001 15.3899 52.0001C11.9399 52.0001 9.73995 51.3801 9.08995 51.0001ZM15.3899 39.8901C17.2594 39.8434 19.1248 40.0863 20.9199 40.6101C19.1299 41.5101 11.6499 41.5101 9.86995 40.6101C11.6593 40.0717 13.5217 39.8153 15.3899 39.8501V39.8901ZM9.08995 56.3301V54.1901C11.1419 54.7545 13.2618 55.0338 15.3899 55.0201C17.5181 55.0338 19.638 54.7545 21.6899 54.1901V56.3301C21.0399 56.7501 18.8399 57.3901 15.3899 57.3901C11.9399 57.3901 9.73995 56.7501 9.08995 56.3301ZM31.9999 47.8701C31.7215 47.8701 31.4544 47.7594 31.2575 47.5625C31.0606 47.3656 30.9499 47.0985 30.9499 46.8201C30.9499 46.5416 31.0606 46.2745 31.2575 46.0776C31.4544 45.8807 31.7215 45.7701 31.9999 45.7701C32.2784 45.7701 32.5455 45.8807 32.7424 46.0776C32.9393 46.2745 33.0499 46.5416 33.0499 46.8201C33.0499 47.0985 32.9393 47.3656 32.7424 47.5625C32.5455 47.7594 32.2784 47.8701 31.9999 47.8701ZM42.3099 56.3301V54.1901C46.437 55.2969 50.7829 55.2969 54.9099 54.1901V56.3301C54.2599 56.7501 52.0599 57.3901 48.6099 57.3901C45.1599 57.3901 42.9999 56.7501 42.3099 56.3301Z" fill="black"/>
</svg>
