<?xml version="1.0" encoding="UTF-8" standalone="no"?> <svg width="64" height="64" viewBox="0 0 64 64" fill="none" xmlns="http://www.w3.org/2000/svg">
<path d="M48 15.68C44.66 -2.16004 19.33 -2.15004 16 15.68C-3.46999 19.68 -0.999987 47.45 18.84 48.03C19.2378 48.03 19.6194 47.8719 19.9007 47.5906C20.182 47.3093 20.34 46.9278 20.34 46.53C20.34 46.1321 20.182 45.7506 19.9007 45.4693C19.6194 45.188 19.2378 45.03 18.84 45.03C17.0908 45.0326 15.3582 44.6907 13.7411 44.0237C12.1241 43.3567 10.6542 42.3778 9.41549 41.1428C8.17676 39.9077 7.19341 38.4408 6.52159 36.8258C5.84977 35.2107 5.50264 33.4792 5.50001 31.73C5.30001 22 16.24 15.3 24.82 19.86C25.1716 20.0382 25.5794 20.0698 25.9543 19.948C26.3291 19.8262 26.6404 19.5608 26.82 19.21C28.18 16.4 20.87 15.45 19.07 15.43C22.39 1.89996 41.61 1.90996 44.92 15.43C43.09 15.43 35.8 16.43 37.15 19.21C37.3296 19.5608 37.6409 19.8262 38.0158 19.948C38.3906 20.0698 38.7985 20.0382 39.15 19.86C47.77 15.29 58.62 22 58.5 31.73C58.4868 35.2505 57.0804 38.6227 54.5881 41.1093C52.0959 43.5959 48.7206 44.9947 45.2 45C44.8022 45 44.4207 45.158 44.1394 45.4393C43.8581 45.7206 43.7 46.1021 43.7 46.5C43.7 46.8978 43.8581 47.2793 44.1394 47.5606C44.4207 47.8419 44.8022 48 45.2 48C65.09 47.45 67.42 19.69 48 15.68Z" fill="black"/>
<path d="M42.25 48.8L41.87 48.85C44.19 43.03 39.11 35.85 32.67 35.96C30.67 35.75 24.54 37.96 26.62 40.56C26.9012 40.8409 27.2825 40.9987 27.68 40.9987C28.0775 40.9987 28.4587 40.8409 28.74 40.56C29.2597 40.0536 29.8746 39.655 30.5491 39.3873C31.2236 39.1195 31.9444 38.9879 32.67 39C36.4 38.87 39.89 42.81 39.38 46.41C39.1932 46.112 38.9076 45.889 38.5731 45.7802C38.2386 45.6714 37.8765 45.6835 37.5501 45.8146C37.2237 45.9456 36.9537 46.1872 36.7873 46.4971C36.621 46.807 36.5688 47.1655 36.64 47.51L37.43 51.14C37.5199 51.5059 37.7401 51.8265 38.0493 52.0418C38.3585 52.2572 38.7356 52.3525 39.11 52.31L42.66 51.81C43.0591 51.7556 43.4203 51.5449 43.6641 51.2242C43.9079 50.9036 44.0143 50.4992 43.96 50.1C43.9056 49.7009 43.6949 49.3397 43.3742 49.0959C43.0535 48.8521 42.6491 48.7456 42.25 48.8V48.8Z" fill="black"/>
<path d="M35.26 52.31C31.09 56.44 23.92 51.9 24.62 46.5C24.8132 46.7881 25.0997 47.0009 25.4313 47.1027C25.763 47.2044 26.1196 47.1888 26.4411 47.0586C26.7626 46.9283 27.0295 46.6913 27.1968 46.3875C27.3642 46.0836 27.4218 45.7313 27.36 45.39L26.57 41.76C26.4839 41.3919 26.2647 41.0686 25.9545 40.8526C25.6443 40.6366 25.2651 40.543 24.89 40.59L21.34 41.09C21.1261 41.1196 20.9209 41.1945 20.7382 41.3095C20.5556 41.4246 20.3995 41.5773 20.2804 41.7575C20.1613 41.9376 20.082 42.141 20.0477 42.3542C20.0134 42.5674 20.025 42.7855 20.0815 42.9939C20.1381 43.2022 20.2384 43.3962 20.3758 43.5628C20.5132 43.7293 20.6845 43.8647 20.8783 43.9599C21.0721 44.0551 21.284 44.1079 21.4998 44.1148C21.7156 44.1218 21.9305 44.0826 22.13 44C19.81 49.82 24.89 57 31.33 56.89C33.33 57.1 39.46 54.89 37.38 52.29C37.0961 52.0117 36.7133 51.8575 36.3158 51.8613C35.9183 51.865 35.5385 52.0264 35.26 52.31Z" fill="black"/>
</svg>
