<?xml version="1.0" encoding="UTF-8" standalone="no"?> <svg width="64" height="64" viewBox="0 0 64 64" fill="none" xmlns="http://www.w3.org/2000/svg">
<path d="M23.37 38.6899H5.92C5.47088 38.6899 5.02616 38.7784 4.61122 38.9503C4.19629 39.1221 3.81927 39.3741 3.50169 39.6916C3.18412 40.0092 2.9322 40.3862 2.76033 40.8012C2.58846 41.2161 2.5 41.6608 2.5 42.1099V51.5299C2.49337 51.9833 2.57694 52.4334 2.74584 52.8541C2.91474 53.2748 3.1656 53.6577 3.48384 53.9806C3.80208 54.3035 4.18134 54.5599 4.59957 54.7349C5.0178 54.9099 5.46664 55 5.92 54.9999H13.15V56.4999H10.89C10.4922 56.4999 10.1106 56.658 9.82934 56.9393C9.54803 57.2206 9.39 57.6021 9.39 57.9999C9.39 58.3978 9.54803 58.7793 9.82934 59.0606C10.1106 59.3419 10.4922 59.4999 10.89 59.4999H18.41C18.8078 59.4999 19.1894 59.3419 19.4707 59.0606C19.752 58.7793 19.91 58.3978 19.91 57.9999C19.91 57.6021 19.752 57.2206 19.4707 56.9393C19.1894 56.658 18.8078 56.4999 18.41 56.4999H16.15V54.9999H23.37C24.278 54.9999 25.1489 54.6399 25.7918 53.9989C26.4348 53.3578 26.7974 52.4879 26.8 51.5799V42.1099C26.7974 41.202 26.4348 40.3321 25.7918 39.691C25.1489 39.0499 24.278 38.6899 23.37 38.6899V38.6899ZM23.8 51.5299C23.8 51.5859 23.7888 51.6414 23.7671 51.693C23.7454 51.7446 23.7135 51.7914 23.6735 51.8305C23.6334 51.8697 23.5859 51.9004 23.5338 51.9209C23.4817 51.9414 23.426 51.9513 23.37 51.9499H5.92C5.80861 51.9499 5.70178 51.9057 5.62301 51.8269C5.54425 51.7482 5.5 51.6413 5.5 51.5299V42.1099C5.5 41.9986 5.54425 41.8917 5.62301 41.813C5.70178 41.7342 5.80861 41.6899 5.92 41.6899H23.37C23.426 41.6886 23.4817 41.6985 23.5338 41.719C23.5859 41.7395 23.6334 41.7702 23.6735 41.8094C23.7135 41.8485 23.7454 41.8953 23.7671 41.9469C23.7888 41.9985 23.8 42.0539 23.8 42.1099V51.5299Z" fill="black"/>
<path d="M58.0799 38.6899H40.6299C39.722 38.6899 38.8511 39.0499 38.2081 39.691C37.5651 40.3321 37.2026 41.202 37.1999 42.1099V51.5299C37.1946 51.9837 37.2795 52.4341 37.4495 52.8548C37.6195 53.2756 37.8713 53.6585 38.1903 53.9812C38.5093 54.304 38.8893 54.5602 39.308 54.7351C39.7268 54.9099 40.1761 55 40.6299 54.9999H47.8499V56.4999H45.5899C45.1921 56.4999 44.8106 56.658 44.5293 56.9393C44.248 57.2206 44.0899 57.6021 44.0899 57.9999C44.0899 58.3978 44.248 58.7793 44.5293 59.0606C44.8106 59.3419 45.1921 59.4999 45.5899 59.4999H53.1099C53.5078 59.4999 53.8893 59.3419 54.1706 59.0606C54.4519 58.7793 54.6099 58.3978 54.6099 57.9999C54.6099 57.6021 54.4519 57.2206 54.1706 56.9393C53.8893 56.658 53.5078 56.4999 53.1099 56.4999H50.8499V54.9999H58.0799C58.987 54.9999 59.8569 54.6396 60.4982 53.9982C61.1396 53.3569 61.4999 52.487 61.4999 51.5799V42.1099C61.4999 41.6608 61.4115 41.2161 61.2396 40.8012C61.0677 40.3862 60.8158 40.0092 60.4982 39.6916C60.1807 39.3741 59.8037 39.1221 59.3887 38.9503C58.9738 38.7784 58.5291 38.6899 58.0799 38.6899V38.6899ZM58.4999 51.5299C58.4999 51.6413 58.4557 51.7482 58.3769 51.8269C58.2982 51.9057 58.1913 51.9499 58.0799 51.9499H40.6299C40.5739 51.9513 40.5183 51.9414 40.4661 51.9209C40.414 51.9004 40.3665 51.8697 40.3265 51.8305C40.2864 51.7914 40.2546 51.7446 40.2328 51.693C40.2111 51.6414 40.1999 51.5859 40.1999 51.5299V42.1099C40.1999 42.0539 40.2111 41.9985 40.2328 41.9469C40.2546 41.8953 40.2864 41.8485 40.3265 41.8094C40.3665 41.7702 40.414 41.7395 40.4661 41.719C40.5183 41.6985 40.5739 41.6886 40.6299 41.6899H58.0799C58.1913 41.6899 58.2982 41.7342 58.3769 41.813C58.4557 41.8917 58.4999 41.9986 58.4999 42.1099V51.5299Z" fill="black"/>
<path d="M23.28 20.77H30.5V22.31H28.24C27.8422 22.31 27.4606 22.468 27.1793 22.7493C26.898 23.0306 26.74 23.4122 26.74 23.81C26.74 24.2078 26.898 24.5894 27.1793 24.8707C27.4606 25.152 27.8422 25.31 28.24 25.31H35.76C36.1578 25.31 36.5393 25.152 36.8206 24.8707C37.1019 24.5894 37.26 24.2078 37.26 23.81C37.26 23.4122 37.1019 23.0306 36.8206 22.7493C36.5393 22.468 36.1578 22.31 35.76 22.31H33.5V20.77H40.72C41.6289 20.7674 42.4998 20.4051 43.1424 19.7625C43.7851 19.1198 44.1473 18.2489 44.15 17.34V7.92C44.1473 7.01204 43.7848 6.14217 43.1418 5.50109C42.4989 4.86 41.6279 4.5 40.72 4.5H23.28C22.372 4.5 21.5011 4.86 20.8581 5.50109C20.2152 6.14217 19.8526 7.01204 19.85 7.92V17.34C19.8526 18.2489 20.2148 19.1198 20.8575 19.7625C21.5002 20.4051 22.3711 20.7674 23.28 20.77V20.77ZM22.85 7.92C22.85 7.86399 22.8611 7.80855 22.8829 7.75693C22.9046 7.70531 22.9364 7.65856 22.9765 7.61942C23.0166 7.58029 23.0641 7.54956 23.1162 7.52905C23.1683 7.50855 23.224 7.49867 23.28 7.5H40.72C40.776 7.49867 40.8317 7.50855 40.8838 7.52905C40.9359 7.54956 40.9834 7.58029 41.0234 7.61942C41.0635 7.65856 41.0953 7.70531 41.1171 7.75693C41.1388 7.80855 41.15 7.86399 41.15 7.92V17.34C41.15 17.454 41.1047 17.5634 41.024 17.6441C40.9434 17.7247 40.834 17.77 40.72 17.77H23.28C23.1659 17.77 23.0566 17.7247 22.9759 17.6441C22.8953 17.5634 22.85 17.454 22.85 17.34V7.92Z" fill="black"/>
<path d="M47.85 35.37C47.85 35.7678 48.0081 36.1494 48.2894 36.4307C48.5707 36.712 48.9522 36.87 49.35 36.87C49.7478 36.87 50.1294 36.712 50.4107 36.4307C50.692 36.1494 50.85 35.7678 50.85 35.37V31.14C50.85 30.7422 50.692 30.3606 50.4107 30.0793C50.1294 29.798 49.7478 29.64 49.35 29.64H33.5V28C33.5 27.6022 33.342 27.2206 33.0607 26.9393C32.7794 26.658 32.3978 26.5 32 26.5C31.6022 26.5 31.2207 26.658 30.9394 26.9393C30.6581 27.2206 30.5 27.6022 30.5 28V29.64H14.65C14.2522 29.64 13.8707 29.798 13.5894 30.0793C13.3081 30.3606 13.15 30.7422 13.15 31.14V35.37C13.15 35.7678 13.3081 36.1494 13.5894 36.4307C13.8707 36.712 14.2522 36.87 14.65 36.87C15.0478 36.87 15.4294 36.712 15.7107 36.4307C15.992 36.1494 16.15 35.7678 16.15 35.37V32.64H47.85V35.37Z" fill="black"/>
</svg>
