<?xml version="1.0" encoding="UTF-8" standalone="no"?> <svg width="64" height="64" viewBox="0 0 64 64" fill="none" xmlns="http://www.w3.org/2000/svg">
<path d="M60.94 43.22L51.94 19.36C51.8685 19.1686 51.7401 19.0037 51.572 18.8875C51.4039 18.7713 51.2043 18.7093 51 18.71H47.71V12.09C47.7235 11.9435 47.7045 11.7959 47.6543 11.6576C47.6042 11.5193 47.5242 11.3938 47.42 11.29L39.42 3.29C39.3266 3.19732 39.2157 3.12399 39.0939 3.07423C38.9721 3.02447 38.8416 2.99924 38.71 3H21.29C19.9639 3 18.6921 3.52679 17.7545 4.46447C16.8168 5.40215 16.29 6.67392 16.29 8V18.71H13C12.7957 18.7093 12.5961 18.7713 12.428 18.8875C12.2599 19.0037 12.1315 19.1686 12.06 19.36L3.06 43.22C3.03034 43.3348 3.01027 43.4519 3 43.57V56C3 57.3261 3.52678 58.5979 4.46447 59.5355C5.40215 60.4732 6.67392 61 8 61H56C57.3261 61 58.5979 60.4732 59.5355 59.5355C60.4732 58.5979 61 57.3261 61 56V43.57C60.9897 43.4519 60.9697 43.3348 60.94 43.22V43.22ZM39.71 6.41L44.3 11H39.71V6.41ZM18.29 8C18.29 7.20435 18.6061 6.44129 19.1687 5.87868C19.7313 5.31607 20.4944 5 21.29 5H37.71V12C37.71 12.2652 37.8154 12.5196 38.0029 12.7071C38.1904 12.8946 38.4448 13 38.71 13H45.71V35.43C45.71 36.2256 45.3939 36.9887 44.8313 37.5513C44.2687 38.1139 43.5056 38.43 42.71 38.43H21.29C20.4944 38.43 19.7313 38.1139 19.1687 37.5513C18.6061 36.9887 18.29 36.2256 18.29 35.43V8ZM13.69 20.71H16.29V35.43C16.29 36.7561 16.8168 38.0279 17.7545 38.9655C18.6921 39.9032 19.9639 40.43 21.29 40.43H42.71C44.0361 40.43 45.3079 39.9032 46.2455 38.9655C47.1832 38.0279 47.71 36.7561 47.71 35.43V20.71H50.31L58.55 42.57H39.36C39.0948 42.57 38.8404 42.6754 38.6529 42.8629C38.4654 43.0504 38.36 43.3048 38.36 43.57C38.36 45.2568 37.6899 46.8745 36.4972 48.0672C35.3045 49.2599 33.6868 49.93 32 49.93C30.3132 49.93 28.6955 49.2599 27.5028 48.0672C26.3101 46.8745 25.64 45.2568 25.64 43.57C25.64 43.3048 25.5346 43.0504 25.3471 42.8629C25.1596 42.6754 24.9052 42.57 24.64 42.57H5.45L13.69 20.71ZM59 56C59 56.7956 58.6839 57.5587 58.1213 58.1213C57.5587 58.6839 56.7956 59 56 59H8C7.20435 59 6.44129 58.6839 5.87868 58.1213C5.31607 57.5587 5 56.7956 5 56V44.57H23.7C23.9445 46.5994 24.924 48.4689 26.4533 49.8251C27.9827 51.1813 29.9559 51.9302 32 51.9302C34.0441 51.9302 36.0173 51.1813 37.5467 49.8251C39.076 48.4689 40.0555 46.5994 40.3 44.57H59V56Z" fill="black"/>
<path d="M23.8199 16.29H31.9999C32.2652 16.29 32.5195 16.1847 32.7071 15.9971C32.8946 15.8096 32.9999 15.5552 32.9999 15.29C32.9999 15.0248 32.8946 14.7704 32.7071 14.5829C32.5195 14.3954 32.2652 14.29 31.9999 14.29H23.8199C23.5547 14.29 23.3004 14.3954 23.1128 14.5829C22.9253 14.7704 22.8199 15.0248 22.8199 15.29C22.8199 15.5552 22.9253 15.8096 23.1128 15.9971C23.3004 16.1847 23.5547 16.29 23.8199 16.29Z" fill="black"/>
<path d="M23.8199 20.86H40.6099C40.8752 20.86 41.1295 20.7546 41.3171 20.5671C41.5046 20.3796 41.6099 20.1252 41.6099 19.86C41.6099 19.5948 41.5046 19.3404 41.3171 19.1529C41.1295 18.9654 40.8752 18.86 40.6099 18.86H23.8199C23.5547 18.86 23.3004 18.9654 23.1128 19.1529C22.9253 19.3404 22.8199 19.5948 22.8199 19.86C22.8199 20.1252 22.9253 20.3796 23.1128 20.5671C23.3004 20.7546 23.5547 20.86 23.8199 20.86Z" fill="black"/>
<path d="M23.8199 25.43H40.6099C40.8752 25.43 41.1295 25.3246 41.3171 25.1371C41.5046 24.9496 41.6099 24.6952 41.6099 24.43C41.6099 24.1648 41.5046 23.9104 41.3171 23.7229C41.1295 23.5354 40.8752 23.43 40.6099 23.43H23.8199C23.5547 23.43 23.3004 23.5354 23.1128 23.7229C22.9253 23.9104 22.8199 24.1648 22.8199 24.43C22.8199 24.6952 22.9253 24.9496 23.1128 25.1371C23.3004 25.3246 23.5547 25.43 23.8199 25.43Z" fill="black"/>
<path d="M23.8199 30H40.6099C40.8752 30 41.1295 29.8946 41.3171 29.7071C41.5046 29.5196 41.6099 29.2652 41.6099 29C41.6099 28.7348 41.5046 28.4804 41.3171 28.2929C41.1295 28.1054 40.8752 28 40.6099 28H23.8199C23.5547 28 23.3004 28.1054 23.1128 28.2929C22.9253 28.4804 22.8199 28.7348 22.8199 29C22.8199 29.2652 22.9253 29.5196 23.1128 29.7071C23.3004 29.8946 23.5547 30 23.8199 30Z" fill="black"/>
<path d="M23.8199 34.57H40.6099C40.8752 34.57 41.1295 34.4647 41.3171 34.2771C41.5046 34.0896 41.6099 33.8352 41.6099 33.57C41.6099 33.3048 41.5046 33.0504 41.3171 32.8629C41.1295 32.6754 40.8752 32.57 40.6099 32.57H23.8199C23.5547 32.57 23.3004 32.6754 23.1128 32.8629C22.9253 33.0504 22.8199 33.3048 22.8199 33.57C22.8199 33.8352 22.9253 34.0896 23.1128 34.2771C23.3004 34.4647 23.5547 34.57 23.8199 34.57Z" fill="black"/>
</svg>
