<?xml version="1.0" encoding="UTF-8" standalone="no"?> <svg width="64" height="64" viewBox="0 0 64 64" fill="none" xmlns="http://www.w3.org/2000/svg">
<path d="M48 17.55C44.66 -0.290009 19.33 -0.270008 16 17.55C-3.46999 21.55 -0.999987 49.32 18.84 49.9C19.2378 49.9 19.6194 49.742 19.9007 49.4607C20.182 49.1793 20.34 48.7978 20.34 48.4C20.34 48.0022 20.182 47.6206 19.9007 47.3393C19.6194 47.058 19.2378 46.9 18.84 46.9C17.0908 46.9026 15.3582 46.5607 13.7411 45.8937C12.1241 45.2268 10.6542 44.2478 9.41549 43.0128C8.17676 41.7778 7.19341 40.3109 6.52159 38.6958C5.84977 37.0808 5.50264 35.3492 5.50001 33.6C5.30001 23.86 16.23 17.17 24.82 21.74C25.1732 21.9148 25.5811 21.9435 25.9553 21.82C26.3296 21.6965 26.6402 21.4307 26.82 21.08C28.18 18.27 20.87 17.32 19.07 17.3C22.39 3.76999 41.61 3.77999 44.92 17.3C43.09 17.3 35.8 18.3 37.15 21.07C37.3296 21.4208 37.6409 21.6862 38.0158 21.808C38.3906 21.9299 38.7985 21.8982 39.15 21.72C47.75 17.15 58.6 23.85 58.48 33.59C58.4774 37.114 57.0784 40.4934 54.5893 42.9881C52.1002 45.4828 48.724 46.8894 45.2 46.9C44.8022 46.9 44.4207 47.058 44.1394 47.3393C43.8581 47.6206 43.7 48.0022 43.7 48.4C43.7 48.7978 43.8581 49.1793 44.1394 49.4607C44.4207 49.742 44.8022 49.9 45.2 49.9C65.09 49.32 67.42 21.57 48 17.55Z" fill="black"/>
<path d="M30 37C29.726 36.888 29.4251 36.8597 29.1351 36.9184C28.845 36.9771 28.5788 37.1203 28.37 37.33L22.24 43.46C21.975 43.7443 21.8308 44.1204 21.8376 44.509C21.8445 44.8976 22.0019 45.2684 22.2767 45.5432C22.5516 45.818 22.9223 45.9754 23.3109 45.9823C23.6995 45.9892 24.0756 45.8449 24.36 45.58L28 42V58.4C28 58.7978 28.158 59.1793 28.4393 59.4606C28.7206 59.7419 29.1022 59.9 29.5 59.9C29.8978 59.9 30.2793 59.7419 30.5606 59.4606C30.8419 59.1793 31 58.7978 31 58.4V38.4C30.9956 38.0925 30.8976 37.7938 30.7189 37.5436C30.5402 37.2934 30.2894 37.1038 30 37V37Z" fill="black"/>
<path d="M39.61 51.21L36 54.78V38.4C36 38.0022 35.842 37.6207 35.5607 37.3394C35.2794 37.0581 34.8978 36.9 34.5 36.9C34.1022 36.9 33.7206 37.0581 33.4393 37.3394C33.158 37.6207 33 38.0022 33 38.4V58.4C33.0049 58.6944 33.0957 58.981 33.2613 59.2244C33.4269 59.4678 33.6601 59.6575 33.9321 59.7702C34.2042 59.8828 34.5032 59.9135 34.7924 59.8584C35.0816 59.8033 35.3484 59.6648 35.56 59.46L41.69 53.33C41.9095 53.0432 42.0182 52.6869 41.9961 52.3264C41.974 51.9659 41.8226 51.6255 41.5696 51.3677C41.3167 51.1099 40.9792 50.9521 40.6193 50.9231C40.2593 50.8941 39.9009 50.996 39.61 51.21Z" fill="black"/>
</svg>
