<?xml version="1.0" encoding="UTF-8" standalone="no"?> <svg xmlns="http://www.w3.org/2000/svg" viewBox="0 0 64 64"><g id="Mail_Promotion" data-name="Mail Promotion"><path d="M60.23,20a5.73,5.73,0,0,0-2.8-4.35l-4.89-2.82a.64.64,0,0,0-.18-.06V4a1,1,0,0,0-1-1H12.64a1,1,0,0,0-1,1v8.85a1,1,0,0,0-.4.12l-4.67,2.7A5.81,5.81,0,0,0,3.77,20V60a.9.9,0,0,0,1,1H59.23a.94.94,0,0,0,1-1Zm-2,38.14L33.78,42.31,57.63,25.53a7,7,0,0,0,.6-.48ZM32,43.54,55.85,59H8.15ZM56.43,17.4a3.61,3.61,0,0,1,1.8,3.13,4.13,4.13,0,0,1-1.75,3.36l-4.12,2.9V15.05ZM50.36,5V28.2L32,41.12,13.64,28.2V5ZM7.57,17.4l4.07-2.35V26.79l-4.12-2.9a4.15,4.15,0,0,1-1.75-3.36v0A3.64,3.64,0,0,1,7.57,17.4Zm-1.2,8.13L30.22,42.31,5.77,58.16V25.05A7,7,0,0,0,6.37,25.53Z"/><path d="M36.73,29.32H27.27a1,1,0,0,0,0,2h9.46a1,1,0,0,0,0-2Z"/><path d="M25.37,22.4a1,1,0,0,0,.87.5,1,1,0,0,0,.3,0l2-.62,4,3.62a1,1,0,0,0,.67.25h0a1,1,0,0,0,.7-.33L36.41,23a1,1,0,0,0-.07-1.42l-1.52-1.37,4.47-1.42a1,1,0,0,0,.56-1.45L34.37,7.88a1,1,0,0,0-.72-.49,1,1,0,0,0-.82.25l-9.87,9a1,1,0,0,0-.19,1.24Zm8.89,0L33.11,23.7l-2.4-2.16,1.9-.6ZM33.26,10l4.24,7.34L26.7,20.71l-1.8-3.12Z"/></g></svg>