<?xml version="1.0" encoding="UTF-8" standalone="no"?> <svg width="64" height="64" viewBox="0 0 64 64" fill="none" xmlns="http://www.w3.org/2000/svg">
<path d="M24.77 7.65991C21.3836 7.65991 18.0732 8.66424 15.2576 10.5458C12.442 12.4275 10.2477 15.1018 8.95226 18.2307C7.65678 21.3595 7.31833 24.8023 7.97972 28.1235C8.64111 31.4448 10.2726 34.4952 12.6679 36.8891C15.0632 39.283 18.1146 40.9127 21.4362 41.5722C24.7578 42.2316 28.2004 41.8912 31.3285 40.5939C34.4566 39.2966 37.1297 37.1007 39.0096 34.284C40.8896 31.4673 41.892 28.1564 41.89 24.7699C41.8821 20.2328 40.0755 15.8839 36.8663 12.6765C33.6571 9.46923 29.3072 7.6652 24.77 7.65991V7.65991ZM24.77 39.8899C21.7796 39.8899 18.8563 39.0031 16.3698 37.3417C13.8833 35.6803 11.9454 33.3189 10.801 30.5561C9.65657 27.7933 9.35715 24.7531 9.94056 21.8201C10.524 18.8872 11.964 16.193 14.0786 14.0785C16.1931 11.9639 18.8873 10.5238 21.8203 9.94044C24.7533 9.35703 27.7934 9.65646 30.5562 10.8009C33.319 11.9453 35.6804 13.8832 37.3418 16.3697C39.0033 18.8562 39.89 21.7795 39.89 24.7699C39.8874 28.7792 38.2935 32.6235 35.4586 35.4584C32.6236 38.2934 28.7793 39.8873 24.77 39.8899V39.8899Z" fill="black"/>
<path d="M59.74 54.16L42.62 37C45.6782 32.5408 46.9606 27.1002 46.2157 21.7446C45.4709 16.3891 42.7525 11.5048 38.5936 8.04941C34.4347 4.59397 29.1351 2.81652 23.7337 3.06551C18.3324 3.31449 13.2188 5.57195 9.39535 9.39535C5.57195 13.2188 3.31449 18.3324 3.06551 23.7337C2.81652 29.1351 4.59397 34.4347 8.04941 38.5936C11.5048 42.7525 16.3891 45.4709 21.7446 46.2157C27.1002 46.9606 32.5408 45.6782 37 42.62L54.16 59.74C54.5197 60.1351 54.9558 60.4532 55.442 60.6749C55.9281 60.8966 56.4542 61.0174 56.9884 61.0299C57.5225 61.0424 58.0537 60.9465 58.5497 60.7478C59.0457 60.5491 59.4962 60.2519 59.8741 59.8741C60.2519 59.4962 60.5491 59.0457 60.7478 58.5497C60.9465 58.0537 61.0424 57.5225 61.0299 56.9884C61.0174 56.4542 60.8966 55.9281 60.6749 55.442C60.4532 54.9558 60.1351 54.5197 59.74 54.16V54.16ZM5.11003 24.77C5.11003 20.8792 6.26391 17.0759 8.42572 13.8409C10.5875 10.606 13.6602 8.08485 17.255 6.59636C20.8498 5.10788 24.8053 4.71894 28.6211 5.47872C32.437 6.2385 35.9419 8.11288 38.6924 10.8648C41.4429 13.6167 43.3155 17.1225 44.0733 20.9387C44.8311 24.755 44.4402 28.7103 42.9499 32.3043C41.4596 35.8984 38.9369 38.9697 35.7008 41.1299C32.4648 43.2901 28.6608 44.442 24.77 44.44C19.5558 44.4347 14.5567 42.3603 10.8706 38.6724C7.18452 34.9844 5.11268 29.9843 5.11003 24.77V24.77ZM58.32 58.32C58.1406 58.5008 57.9272 58.6443 57.6921 58.7423C57.4569 58.8402 57.2047 58.8906 56.95 58.8906C56.6953 58.8906 56.4431 58.8402 56.208 58.7423C55.9729 58.6443 55.7594 58.5008 55.58 58.32L38.65 41.4C39.645 40.5651 40.5651 39.645 41.4 38.65L58.32 55.58C58.5008 55.7594 58.6443 55.9729 58.7423 56.208C58.8402 56.4431 58.8906 56.6953 58.8906 56.95C58.8906 57.2047 58.8402 57.4569 58.7423 57.6921C58.6443 57.9272 58.5008 58.1406 58.32 58.32V58.32Z" fill="black"/>
</svg>
