<?xml version="1.0" encoding="UTF-8" standalone="no"?> <svg width="64" height="64" viewBox="0 0 64 64" fill="none" xmlns="http://www.w3.org/2000/svg">
<path d="M18.13 47C19.1892 46.1872 19.9673 45.063 20.3548 43.7854C20.7424 42.5077 20.72 41.1408 20.2909 39.8765C19.8617 38.6122 19.0473 37.5141 17.962 36.7364C16.8767 35.9587 15.5751 35.5405 14.24 35.5405C12.9048 35.5405 11.6032 35.9587 10.5179 36.7364C9.43268 37.5141 8.61827 38.6122 8.1891 39.8765C7.75993 41.1408 7.73755 42.5077 8.12512 43.7854C8.51269 45.063 9.29074 46.1872 10.35 47C8.56271 47.637 6.96082 48.7063 5.6871 50.1126C4.41339 51.519 3.50742 53.2186 3.04998 55.06C2.99692 55.2337 2.99216 55.4185 3.03621 55.5947C3.08025 55.7709 3.17144 55.9317 3.29998 56.06C4.67804 57.6057 6.36733 58.8426 8.25704 59.6895C10.1467 60.5364 12.1942 60.9743 14.265 60.9743C16.3358 60.9743 18.3832 60.5364 20.2729 59.6895C22.1626 58.8426 23.8519 57.6057 25.23 56.06C25.3365 55.9389 25.4122 55.7937 25.4505 55.637C25.4888 55.4803 25.4886 55.3166 25.45 55.16C25.0071 53.2973 24.1053 51.575 22.8269 50.1498C21.5484 48.7247 19.9338 47.6419 18.13 47V47ZM9.84998 42C9.84999 41.1326 10.107 40.2846 10.5885 39.5631C11.07 38.8416 11.7544 38.279 12.5554 37.9461C13.3564 37.6133 14.2381 37.5252 15.0891 37.6929C15.9401 37.8607 16.7224 38.2768 17.3371 38.8888C17.9519 39.5008 18.3715 40.2811 18.5432 41.1314C18.7148 41.9816 18.6307 42.8637 18.3015 43.6662C17.9723 44.4687 17.4128 45.1557 16.6935 45.6404C15.9742 46.1252 15.1274 46.386 14.26 46.39V46.39C13.6822 46.3913 13.1097 46.2788 12.5754 46.0589C12.0411 45.839 11.5553 45.516 11.1458 45.1083C10.7363 44.7007 10.4111 44.2164 10.1887 43.683C9.9664 43.1497 9.85129 42.5778 9.84998 42V42ZM14.24 59C12.5356 58.9995 10.8487 58.6557 9.28013 57.9891C7.71151 57.3225 6.29325 56.3467 5.10998 55.12C5.69712 53.163 6.89953 51.4475 8.53879 50.2279C10.1781 49.0084 12.1668 48.3498 14.21 48.35H14.27C16.3144 48.3505 18.3041 49.0105 19.9436 50.232C21.583 51.4534 22.7846 53.1712 23.37 55.13C22.1848 56.3535 20.766 57.3266 19.1976 57.9913C17.6293 58.6561 15.9434 58.9991 14.24 59V59Z" fill="black"/>
<path d="M61 55.16C60.5543 53.294 59.648 51.5695 58.364 50.1441C57.0801 48.7186 55.4594 47.6377 53.65 47C54.7092 46.1872 55.4873 45.063 55.8748 43.7854C56.2624 42.5077 56.24 41.1408 55.8109 39.8765C55.3817 38.6122 54.5673 37.5141 53.482 36.7364C52.3968 35.9587 51.0951 35.5405 49.76 35.5405C48.4248 35.5405 47.1232 35.9587 46.038 36.7364C44.9527 37.5141 44.1383 38.6122 43.7091 39.8765C43.2799 41.1408 43.2576 42.5077 43.6451 43.7854C44.0327 45.063 44.8108 46.1872 45.87 47C44.0827 47.637 42.4808 48.7063 41.2071 50.1126C39.9334 51.519 39.0274 53.2186 38.57 55.06C38.5169 55.2337 38.5122 55.4185 38.5562 55.5947C38.6003 55.7709 38.6915 55.9317 38.82 56.06C40.1981 57.6057 41.8874 58.8426 43.7771 59.6895C45.6668 60.5364 47.7142 60.9743 49.785 60.9743C51.8558 60.9743 53.9032 60.5364 55.7929 59.6895C57.6826 58.8426 59.3719 57.6057 60.75 56.06C60.8618 55.9417 60.943 55.7978 60.9865 55.641C61.0301 55.4841 61.0347 55.319 61 55.16ZM45.37 42C45.37 41.1326 45.627 40.2846 46.1085 39.5631C46.59 38.8416 47.2744 38.279 48.0754 37.9461C48.8764 37.6133 49.7581 37.5252 50.6091 37.6929C51.4601 37.8607 52.2424 38.2768 52.8571 38.8888C53.4719 39.5008 53.8915 40.2811 54.0632 41.1314C54.2348 41.9816 54.1507 42.8637 53.8215 43.6662C53.4923 44.4687 52.9328 45.1557 52.2135 45.6404C51.4942 46.1252 50.6474 46.386 49.78 46.39V46.39C49.2022 46.3913 48.6298 46.2788 48.0954 46.0589C47.5611 45.839 47.0753 45.516 46.6658 45.1083C46.2563 44.7007 45.9311 44.2164 45.7088 43.683C45.4864 43.1497 45.3713 42.5778 45.37 42V42ZM49.76 59C48.0554 59.0007 46.3683 58.6574 44.7995 57.9907C43.2307 57.324 41.8126 56.3476 40.63 55.12C41.2171 53.163 42.4195 51.4475 44.0588 50.2279C45.6981 49.0084 47.6868 48.3498 49.73 48.35H49.79C51.8344 48.3505 53.8241 49.0105 55.4636 50.232C57.103 51.4534 58.3046 53.1712 58.89 55.13C57.7048 56.3535 56.286 57.3266 54.7177 57.9913C53.1493 58.6561 51.4634 58.9991 49.76 59Z" fill="black"/>
<path d="M21.0699 23.55C22.4507 25.094 24.1425 26.3283 26.0342 27.1719C27.926 28.0154 29.9749 28.449 32.0462 28.4443C34.1174 28.4396 36.1643 27.9966 38.0522 27.1444C39.9401 26.2923 41.6263 25.0503 42.9999 23.5C43.1065 23.3789 43.1821 23.2337 43.2205 23.077C43.2588 22.9203 43.2586 22.7566 43.2199 22.6C42.7722 20.7407 41.8686 19.0221 40.5907 17.5992C39.3127 16.1764 37.7007 15.0941 35.8999 14.45C36.956 13.6376 37.7313 12.515 38.1169 11.2396C38.5025 9.96421 38.4792 8.6001 38.0501 7.33867C37.6211 6.07723 36.8079 4.98178 35.7246 4.20601C34.6413 3.43024 33.3423 3.01309 32.0099 3.01309C30.6775 3.01309 29.3786 3.43024 28.2953 4.20601C27.212 4.98178 26.3988 6.07723 25.9698 7.33867C25.5407 8.6001 25.5174 9.96421 25.903 11.2396C26.2886 12.515 27.0639 13.6376 28.1199 14.45C26.3329 15.0845 24.731 16.1518 23.4571 17.5565C22.1832 18.9613 21.2772 20.6597 20.8199 22.5C20.7568 22.6806 20.7468 22.8755 20.7911 23.0616C20.8354 23.2477 20.9322 23.4172 21.0699 23.55V23.55ZM27.6099 9.39C27.6099 8.52174 27.8674 7.67298 28.3498 6.95105C28.8322 6.22911 29.5178 5.66644 30.32 5.33417C31.1221 5.0019 32.0048 4.91496 32.8564 5.08435C33.708 5.25374 34.4902 5.67185 35.1041 6.2858C35.7181 6.89975 36.1362 7.68198 36.3056 8.53355C36.475 9.38513 36.388 10.2678 36.0558 11.07C35.7235 11.8721 35.1608 12.5578 34.4389 13.0402C33.717 13.5225 32.8682 13.78 31.9999 13.78V13.78C30.8356 13.78 29.719 13.3175 28.8957 12.4942C28.0725 11.6709 27.6099 10.5543 27.6099 9.39V9.39ZM31.9999 15.78C34.044 15.7821 36.0329 16.4427 37.672 17.6639C39.3111 18.8852 40.5132 20.602 41.0999 22.56C39.9171 23.7873 38.4989 24.7636 36.9302 25.4304C35.3615 26.0972 33.6745 26.4408 31.9699 26.4408C30.2654 26.4408 28.5784 26.0972 27.0097 25.4304C25.4409 24.7636 24.0228 23.7873 22.8399 22.56C23.4325 20.5938 24.6443 18.8717 26.2948 17.65C27.9454 16.4283 29.9464 15.7724 31.9999 15.78V15.78Z" fill="black"/>
<path d="M40.86 43C41.0457 42.9985 41.2274 42.9453 41.3846 42.8464C41.5418 42.7475 41.6683 42.6068 41.75 42.44C41.8199 42.3037 41.8575 42.1532 41.86 42C41.8604 41.8126 41.8081 41.6288 41.7091 41.4697C41.6101 41.3106 41.4683 41.1825 41.3 41.1L33 36.94V30.94C33 30.6748 32.8947 30.4204 32.7071 30.2329C32.5196 30.0454 32.2652 29.94 32 29.94C31.7348 29.94 31.4805 30.0454 31.2929 30.2329C31.1054 30.4204 31 30.6748 31 30.94V36.94L22.7 41.06C22.5783 41.1159 22.4691 41.1957 22.3788 41.2946C22.2886 41.3935 22.2191 41.5095 22.1745 41.6358C22.1299 41.7621 22.1111 41.896 22.1193 42.0297C22.1275 42.1634 22.1624 42.294 22.222 42.4139C22.2816 42.5338 22.3647 42.6406 22.4664 42.7278C22.568 42.8149 22.6861 42.8808 22.8137 42.9215C22.9413 42.9622 23.0758 42.9768 23.2091 42.9645C23.3425 42.9522 23.472 42.9133 23.59 42.85L32 38.68L40.41 42.85C40.5468 42.9334 40.7006 42.9846 40.86 43V43Z" fill="black"/>
</svg>
